<svg xmlns="http://www.w3.org/2000/svg" xmlns:xlink="http://www.w3.org/1999/xlink" width="550" height="599" viewBox="0 0 550 599"><defs><style>.a{fill:#f0efff;}.b,.k{fill:#6c63ff;}.b,.f,.l{opacity:0.1;}.c{fill:#d6d6e3;}.d{fill:#aebee1;}.e{fill:#535461;}.g{fill:#e3edf9;}.h{fill:url(#a);}.i{fill:#f8b9bf;}.j{fill:#d9dfe8;}.m{fill:#68739d;}.n{fill:#6394e2;}.o{fill:#b96b6b;}.p{fill:none;stroke:#535461;stroke-miterlimit:10;stroke-width:2px;}.q{fill:url(#b);}.r{fill:#fa595f;}.s{fill:#f37291;}.t{fill:#96a2d0;}</style><linearGradient id="a" x1="0.531" y1="1.017" x2="0.531" y2="-0.007" gradientUnits="objectBoundingBox"><stop offset="0" stop-color="gray" stop-opacity="0.251"/><stop offset="0.54" stop-color="gray" stop-opacity="0.122"/><stop offset="1" stop-color="gray" stop-opacity="0.102"/></linearGradient><linearGradient id="b" x1="0.5" y1="1" x2="0.5" y2="0.001" xlink:href="#a"/></defs><g transform="translate(-133 -85)"><rect class="a" width="550" height="599" transform="translate(133 85)"/><g transform="translate(133.007 158)"><path class="b" d="M534.425,248.793c-19.455,29.264-14.531,69.94-4.735,102.159,3.3,10.785,7.025,22.183,4.811,34.1-2.709,14.578-13.753,25.806-25.076,32.091-20.633,11.464-44.582,10.521-62.35-2.445-15.355-11.209-25.792-30.334-41.463-40.992-26.192-17.773-61.167-8.264-91.369,7.011-21.368,10.794-44.827,24.562-65.078,15.926-14.248-6.078-23.483-22.447-28.072-40.12-2.215-8.533-3.666-17.829-8.387-24.411a31.307,31.307,0,0,0-10.5-8.778c-35.672-20.138-82.737-5.254-117.251-27.9-23.29-15.266-37.147-45.958-42.32-78.539s-2.624-67.236.834-101.339C45.921,91.328,49.44,65.4,62.958,45.978c14.3-20.548,37.5-29.3,57.954-26.833s38.447,14.668,54.1,29.4c19.568,18.376,37.4,41.68,62.242,48.059,16.92,4.358,35.154.269,52.936-1.885,29.731-3.557,59.193-1.578,88.457.773,28.02,2.252,56.22,4.9,82.535,14.5,18.621,6.794,33.142,20.326,50.6,29.326,11.379,5.866,24.053,6.893,34.716,14.606,13.136,9.494,24.746,26.711,20.18,47.984C562.342,222.163,544.748,233.245,534.425,248.793Z" transform="translate(-39.7 -18.74)"/><rect class="b" width="19.266" height="29.165" transform="translate(415.003 120.817)"/><rect class="b" width="15.52" height="23.493" transform="translate(416.873 123.654)"/><rect class="b" width="29.589" height="29.165" transform="translate(375.896 100.557)"/><rect class="b" width="23.836" height="23.493" transform="translate(378.77 103.393)"/><rect class="b" width="90.441" height="2.408" transform="translate(30.444 57.162)"/><rect class="b" width="90.441" height="2.408" transform="translate(30.444 68.937)"/><rect class="c" width="9.24" height="103.252" transform="translate(183.013 213.265)"/><path class="d" d="M950.919,376.25V281.008A10.012,10.012,0,0,1,960.932,271h0a10.012,10.012,0,0,1,9.993,10.008V396.275a10.012,10.012,0,0,1-10.012,10.012H898.9a10.012,10.012,0,0,1-10.012-10.012h0A10.012,10.012,0,0,1,898.9,386.262h42A10.012,10.012,0,0,0,950.92,376.25Z" transform="translate(-488.781 -152.143)"/><path class="e" d="M950.919,376.25V281.008A10.012,10.012,0,0,1,960.932,271h0a10.012,10.012,0,0,1,9.993,10.008V396.275a10.012,10.012,0,0,1-10.012,10.012H898.9a10.012,10.012,0,0,1-10.012-10.012h0A10.012,10.012,0,0,1,898.9,386.262h42A10.012,10.012,0,0,0,950.92,376.25Z" transform="translate(-488.781 -152.143)"/><path class="c" d="M888.92,395.737a10.012,10.012,0,0,1,10-9.475h42a10.012,10.012,0,0,0,10.012-10.012V281.008A10.012,10.012,0,0,1,960.467,271V395.737Z" transform="translate(-488.797 -152.143)"/><path class="d" d="M209.751,383.065V287.822a10.012,10.012,0,0,0-9.989-10.012h0a10.012,10.012,0,0,0-10.012,10.012V403.089a10.012,10.012,0,0,0,10.012,10.036h62.006a10.012,10.012,0,0,0,10.012-10.012h0A10.012,10.012,0,0,0,261.768,393.1h-42a10.012,10.012,0,0,1-10.017-10.036Z" transform="translate(-119.054 -155.744)"/><path class="e" d="M209.751,383.065V287.822a10.012,10.012,0,0,0-9.989-10.012h0a10.012,10.012,0,0,0-10.012,10.012V403.089a10.012,10.012,0,0,0,10.012,10.036h62.006a10.012,10.012,0,0,0,10.012-10.012h0A10.012,10.012,0,0,0,261.768,393.1h-42a10.012,10.012,0,0,1-10.017-10.036Z" transform="translate(-119.054 -155.744)"/><path class="c" d="M283.533,402.568a10.012,10.012,0,0,0-10-9.475h-42a10.012,10.012,0,0,1-10.017-10.012V287.838a10.012,10.012,0,0,0-9.516-10l0,124.728Z" transform="translate(-130.821 -155.76)"/><rect class="c" width="9.24" height="105.66" transform="translate(365.813 213.265)"/><rect class="f" width="9.24" height="7.633" transform="translate(183.013 213.265)"/><rect class="f" width="9.24" height="7.633" transform="translate(365.813 213.265)"/><path class="f" d="M496.076,337.92q-.221,2.441-.561,4.947H494.21V337.92Z" transform="translate(-280.062 -187.532)"/><path class="e" d="M533.934,389.32a2.85,2.85,0,0,1-2.672,3.044h-28.2v-2.94h23.464a1.474,1.474,0,0,0,1.135-2.205l-21.278-43.277a1.885,1.885,0,0,0-1.649-1.065H494.21V337.93H507.5a1.319,1.319,0,0,1,1.154.744l24.392,47.117A8.01,8.01,0,0,1,533.934,389.32Z" transform="translate(-280.062 -187.537)"/><path class="e" d="M464.11,331.867l-.386.65L460.11,330.1l11.181-85.974h2.879s.118.4.311,1.15C476.408,252.71,485.874,294.79,464.11,331.867Z" transform="translate(-262.029 -137.933)"/><path class="f" d="M474.476,245.28,464.11,331.867l-.386.65L460.11,330.1l11.181-85.974h2.879S474.283,244.54,474.476,245.28Z" transform="translate(-262.029 -137.933)"/><rect class="c" width="89.188" height="6.832" transform="translate(194.81 193.862) rotate(-83.17)"/><path class="g" d="M400.664,446.171a.81.81,0,0,1-.806.806h-1.206a.806.806,0,0,1-.806-.806.392.392,0,0,1,0-.094.806.806,0,0,1,.8-.707h1.206a.81.81,0,0,1,.777.612A.745.745,0,0,1,400.664,446.171Z" transform="translate(-229.101 -244.355)"/><path class="g" d="M408.338,446.171a.81.81,0,0,1-.806.806h-1.206a.806.806,0,0,1-.806-.806.791.791,0,0,1,.033-.221.759.759,0,0,1,.2-.344.787.787,0,0,1,.565-.236h1.206a.81.81,0,0,1,.74.471A.83.83,0,0,1,408.338,446.171Z" transform="translate(-233.16 -244.355)"/><path class="g" d="M415.157,446.166a.81.81,0,0,1-.806.806h-1.206a.806.806,0,0,1-.806-.806.762.762,0,0,1,.071-.335.82.82,0,0,1,.73-.471h1.206a.8.8,0,0,1,.806.806Z" transform="translate(-236.767 -244.35)"/><path class="g" d="M422.838,446.171a.81.81,0,0,1-.806.806h-1.206a.806.806,0,0,1-.66-1.267l.094-.1a.787.787,0,0,1,.565-.236h1.206a.81.81,0,0,1,.584.259A.777.777,0,0,1,422.838,446.171Z" transform="translate(-240.829 -244.355)"/><path class="f" d="M400.641,446.66a.745.745,0,0,1,.024.193.81.81,0,0,1-.806.806h-1.206a.806.806,0,0,1-.806-.806.392.392,0,0,1,0-.094Z" transform="translate(-229.101 -245.037)"/><path class="f" d="M408.272,446.39a.829.829,0,0,1,.066.316.81.81,0,0,1-.806.806h-1.206a.806.806,0,0,1-.806-.806.791.791,0,0,1,.033-.221Z" transform="translate(-233.16 -244.894)"/><path class="f" d="M415.045,446.16a.8.8,0,0,1-.683,1.23h-1.206a.806.806,0,0,1-.806-.806.764.764,0,0,1,.071-.335Z" transform="translate(-236.772 -244.773)"/><path class="f" d="M422.838,446.457a.81.81,0,0,1-.806.806h-1.206a.806.806,0,0,1-.66-1.267l2.45-.085A.777.777,0,0,1,422.838,446.457Z" transform="translate(-240.829 -244.641)"/><path class="c" d="M415.189,449.938h-23.3v-1.06a1.814,1.814,0,0,1,1.753-1.814l18.687-.645a2.77,2.77,0,0,1,2.865,2.766Z" transform="translate(-225.952 -244.908)"/><path class="e" d="M685.309,389.32a2.85,2.85,0,0,0,2.672,3.044h28.214v-2.94H692.7a1.474,1.474,0,0,1-1.135-2.205l21.278-43.277a1.885,1.885,0,0,1,1.649-1.065h10.531V337.93H711.742a1.319,1.319,0,0,0-1.135.74l-24.392,47.117a8.009,8.009,0,0,0-.9,3.534Z" transform="translate(-381.121 -187.537)"/><path class="e" d="M779.434,331.867l.386.65,3.614-2.412L772.253,244.13h-2.879s-.118.4-.311,1.15C767.131,252.71,757.647,294.79,779.434,331.867Z" transform="translate(-423.45 -137.933)"/><path class="f" d="M773.23,245.28,783.6,331.867l.386.65L787.6,330.1,776.42,244.13h-2.879S773.423,244.54,773.23,245.28Z" transform="translate(-427.616 -137.933)"/><rect class="c" width="6.832" height="89.188" transform="translate(345.867 106.112) rotate(-6.83)"/><path class="g" d="M860,446.171a.81.81,0,0,0,.806.806h1.206a.806.806,0,0,0,.806-.806.392.392,0,0,0,0-.094.806.806,0,0,0-.8-.707h-1.206a.81.81,0,0,0-.777.612.741.741,0,0,0-.038.188Z" transform="translate(-473.503 -244.355)"/><path class="g" d="M852.328,446.171a.81.81,0,0,0,.806.806h1.206a.806.806,0,0,0,.806-.806.793.793,0,0,0-.033-.221.759.759,0,0,0-.2-.344.787.787,0,0,0-.565-.236h-1.23a.81.81,0,0,0-.74.471A.83.83,0,0,0,852.328,446.171Z" transform="translate(-469.445 -244.355)"/><path class="g" d="M845.51,446.166a.81.81,0,0,0,.806.806h1.206a.806.806,0,0,0,.806-.806.765.765,0,0,0-.071-.334.82.82,0,0,0-.73-.471H846.32a.8.8,0,0,0-.806.806Z" transform="translate(-465.84 -244.35)"/><path class="g" d="M837.83,446.171a.81.81,0,0,0,.806.806h1.206a.806.806,0,0,0,.66-1.267l-.094-.1a.787.787,0,0,0-.565-.236h-1.206a.81.81,0,0,0-.584.259A.777.777,0,0,0,837.83,446.171Z" transform="translate(-461.779 -244.355)"/><path class="f" d="M860.023,446.66a.745.745,0,0,0-.024.193.81.81,0,0,0,.806.806h1.206a.806.806,0,0,0,.806-.806.389.389,0,0,0,0-.094Z" transform="translate(-473.503 -245.037)"/><path class="f" d="M852.4,446.39a.829.829,0,0,0-.066.316.81.81,0,0,0,.806.806h1.206a.806.806,0,0,0,.806-.806.793.793,0,0,0-.033-.221Z" transform="translate(-469.447 -244.894)"/><path class="f" d="M845.622,446.16a.8.8,0,0,0,.683,1.23h1.206a.806.806,0,0,0,.806-.806.764.764,0,0,0-.071-.335Z" transform="translate(-465.835 -244.773)"/><path class="f" d="M837.83,446.457a.81.81,0,0,0,.806.806h1.206a.806.806,0,0,0,.66-1.267l-2.45-.085a.777.777,0,0,0-.221.547Z" transform="translate(-461.779 -244.641)"/><path class="c" d="M822.485,449.938h23.3v-1.06a1.814,1.814,0,0,0-1.753-1.814l-18.687-.645a2.77,2.77,0,0,0-2.865,2.766Z" transform="translate(-453.661 -244.908)"/><path class="h" d="M899.7,334.02c10.87-18.437,6.931-55.626,7.369-56.338.391-.627-1.107-18.14-11.1-22.418-1.8-3.576-3.581-7.6-3.581-7.6a3.17,3.17,0,0,1-.575.429q-.118-.32-.231-.65c-.127-.372-.245-.754-.363-1.136a7.311,7.311,0,0,0,.853.217,3.552,3.552,0,0,0,2.28-.2,2.54,2.54,0,0,0,.655-.5,4.966,4.966,0,0,0,1.588-2.356l2.907-6.964a54.2,54.2,0,0,0,3.326-9.635,27.129,27.129,0,0,0-1.159-15.011,9.577,9.577,0,0,0-3.256-4.749c-3.237-2.2-7.741-.678-11.44-1.965-1.216-.424-2.313-1.14-3.529-1.574a10.852,10.852,0,0,0-8.114.735c-2.525,1.173-4.57,3.039-6.78,4.712-1.088.834-2.827,1.7-4.109,2.827-1.244.971-2.2,2.144-2.017,3.689.207,1.767,2.068,2.827,3.8,3.242.287.066.584.118.876.17a16.962,16.962,0,0,0,7.242,28.176,39.738,39.738,0,0,1,2.29,5.15q.127.363.25.73a29.41,29.41,0,0,0-5.536,1.856c-1.352,1.121,1.479,10.941,1.479,10.941-.721.914-1.456,1.955-2.2,3.072A66.222,66.222,0,0,0,860.192,297.4c-.471,3.727-1.084,7.539-1.861,11.162l-33.769-6.771-.071.834-.806-.2h0l-2.535-.627-.1.57-.386-.184c-6.281-2.945-16.863-6.7-24.03-2.827-7.562,4.071,8.759,9.48,19.233,12.359a17.015,17.015,0,0,0-9.423,2.954c-7.6,5.692,13.885,8.655,24.03,9.706l.41.042v.217l3.515.325.825.075.08,1.253s5.032.825,11.756,1.823a205.051,205.051,0,0,1-23.747,4.024,17.375,17.375,0,0,0-14.8,12.462,11.082,11.082,0,0,0-.17,5.993c1.96,6.846-.433,57.209-.975,68.056l-12.415,7.148s-19.318,2.356-6.45,6.884a26.453,26.453,0,0,0,3.548.942c-1.7,1.093-1.55,2.521,3.449,4.274,12.877,4.514,42.81-.2,42.81-.2s-.655-5.305-1.72-9.716l.33.028s-3.091-11.5,1.6-17.3-.787-49.944-.787-49.944,8.208-3.4,32.742-3.619c19.789,5.079,29.434-13.1,29.3-22.5A5.006,5.006,0,0,1,899.7,334.02Z" transform="translate(-433.353 -116.218)"/><path class="i" d="M840.181,412.421l-2.1,8.481s-1.885-.424-4.712-1.15c-9.574-2.478-29.768-8.429-21.674-12.8,6.978-3.769,17.254-.1,23.356,2.756,2.233,1.051,3.911,1.993,4.66,2.436C840.03,412.327,840.181,412.421,840.181,412.421Z" transform="translate(-446.969 -223.19)"/><path class="f" d="M866.019,419.755l-1.508,6.125s-1.885-.424-4.712-1.15l1.7-10.041c2.233,1.051,3.911,1.993,4.66,2.436Z" transform="translate(-473.397 -228.13)"/><path class="j" d="M826.742,407.27l-5.852-1.447,1.819-10.724,4.679,1.154Z" transform="translate(-434.115 -208.941)"/><path class="f" d="M830.475,407.953l-2.525-.622.952-10.941,2.219.547Z" transform="translate(-437.848 -209.623)"/><path class="k" d="M927.4,344.17s-11.237-6.493-16.232,12.133-5.466,27.205-5.466,27.205l-35.488-7.1-1.126,12.962s37.943,12.25,42.716,11.36,20.26-26.857,20.26-26.857S946.145,353.754,927.4,344.17Z" transform="translate(-478.31 -190.258)"/><g class="l" transform="translate(362.857 153.288)"><path d="M840.181,412.421l-2.1,8.481s-1.885-.424-4.712-1.15c-9.574-2.478-29.768-8.429-21.674-12.8,6.978-3.769,17.254-.1,23.356,2.756,2.233,1.051,3.911,1.993,4.66,2.436C840.03,412.327,840.181,412.421,840.181,412.421Z" transform="translate(-809.826 -376.478)"/><path class="f" d="M866.019,419.755l-1.508,6.125s-1.885-.424-4.712-1.15l1.7-10.041c2.233,1.051,3.911,1.993,4.66,2.436Z" transform="translate(-836.254 -381.418)"/><path d="M826.742,407.27l-5.852-1.447,1.819-10.724,4.679,1.154Z" transform="translate(-796.972 -362.229)"/><path class="f" d="M830.475,407.953l-2.525-.622.952-10.941,2.219.547Z" transform="translate(-800.705 -362.911)"/><path d="M927.4,345.17s-11.237-6.493-16.232,12.133-5.466,27.205-5.466,27.205l-35.488-7.1-1.126,12.962s37.943,12.25,42.716,11.36,20.26-26.857,20.26-26.857S946.145,354.754,927.4,345.17Z" transform="translate(-841.167 -344.075)"/></g><path class="m" d="M813.033,650.747l-14.489,8.344s-18.771,2.3-6.267,6.681,41.576-.193,41.576-.193-1.616-13.061-3.868-14.884S813.033,650.747,813.033,650.747Z" transform="translate(-435.417 -352.516)"/><path class="n" d="M894.775,452.758s-7.209,3.769-20.015,7.025a200.588,200.588,0,0,1-23.394,3.986,16.873,16.873,0,0,0-14.38,12.076,10.761,10.761,0,0,0-.165,5.843c2.134,7.459-1.051,68.089-1.051,68.089l22,2.035s-3-11.171,1.555-16.8-.763-48.488-.763-48.488,7.972-3.3,31.795-3.515c22.07,5.654,31.163-18.5,27.757-25.274S894.775,452.758,894.775,452.758Z" transform="translate(-460.689 -248.148)"/><g class="l" transform="translate(352.564 204.395)"><path d="M813.033,650.747l-14.489,8.344s-18.771,2.3-6.267,6.681,41.576-.193,41.576-.193-1.616-13.061-3.868-14.884S813.033,650.747,813.033,650.747Z" transform="translate(-787.982 -556.91)"/><path d="M894.775,452.758s-7.209,3.769-20.015,7.025a200.588,200.588,0,0,1-23.394,3.986,16.873,16.873,0,0,0-14.38,12.076,10.761,10.761,0,0,0-.165,5.843c2.134,7.459-1.051,68.089-1.051,68.089l22,2.035s-3-11.171,1.555-16.8-.763-48.488-.763-48.488,7.972-3.3,31.795-3.515c22.07,5.654,31.163-18.5,27.757-25.274S894.775,452.758,894.775,452.758Z" transform="translate(-813.254 -452.543)"/></g><path class="m" d="M827.457,661.5l-14.488,8.344s-18.762,2.28-6.267,6.681,41.576-.193,41.576-.193-1.616-13.061-3.868-14.884S827.457,661.5,827.457,661.5Z" transform="translate(-443.048 -358.201)"/><path class="n" d="M904.73,493.748c-23.822.217-31.795,3.515-31.795,3.515s5.32,42.876.763,48.488-1.555,16.8-1.555,16.8l-22-2.035s.038-.716.1-2c.528-10.535,2.851-59.443.942-66.091a10.761,10.761,0,0,1,.165-5.824,16.877,16.877,0,0,1,14.375-12.1,194.877,194.877,0,0,0,23.389-3.986l.368-.094c12.58-3.232,19.648-6.931,19.648-6.931s19.935-1.79,23.342,4.98a8.01,8.01,0,0,1,.7,3.416C933.334,481.022,923.958,498.681,904.73,493.748Z" transform="translate(-468.289 -253.824)"/><path class="i" d="M861.353,438.247l-.806,8.717s-1.937-.137-4.815-.438c-9.833-1.022-30.692-3.9-23.318-9.423,6.342-4.749,17.047-2.676,23.507-.754,2.356.707,4.165,1.39,4.971,1.715C861.188,438.177,861.353,438.247,861.353,438.247Z" transform="translate(-458.097 -238.448)"/><path class="i" d="M991.519,297.3s-2.95,2.309-6.554,4.844c-3.953.9-8.542,1.635-11.85,2.116,1.183-3.769.471-8.01-.862-11.727a44.143,44.143,0,0,0-5.913-10.875l19.94-6.224c-1.564,3.963-.858,8.481.471,12.411A40.919,40.919,0,0,0,991.519,297.3Z" transform="translate(-529.739 -154.486)"/><path class="f" d="M889.035,443.108l-.579,6.262s-1.937-.137-4.815-.438l.188-10.182c2.356.707,4.165,1.39,4.971,1.715Z" transform="translate(-486.004 -240.854)"/><path class="j" d="M850.783,430.5l-6-.556.2-10.875,4.8.443Z" transform="translate(-446.749 -221.617)"/><path class="f" d="M998.156,311.2s-2.949,2.309-6.554,4.844c-3.953.9-8.542,1.635-11.85,2.116,1.183-3.769.471-8.01-.862-11.727,4.872-1.414,11.84-3.242,14.5-4.712a40.923,40.923,0,0,0,4.763,9.48Z" transform="translate(-536.375 -168.389)"/><path class="j" d="M988.006,302.22s3.336,7.572,5.437,10.992-24.416,6.6-24.416,6.6-2.752-9.532-1.437-10.625S985.787,304.435,988.006,302.22Z" transform="translate(-530.212 -168.653)"/><path class="f" d="M977.376,471.891a23.853,23.853,0,0,1-4.127,5.343c-11.713,11.129-30.913-.471-39.578-6.813,12.58-3.232,19.648-6.931,19.648-6.931s19.935-1.79,23.342,4.98a8.009,8.009,0,0,1,.716,3.421Z" transform="translate(-512.462 -253.824)"/><path class="k" d="M968.406,398.531c-13.315,12.646-36.28-4.1-42.471-9.032-1-.8-1.564-1.3-1.564-1.3,2.445-2.29,4.594-7.143,6.295-13.08a114.791,114.791,0,0,0,3.425-17.33,64.314,64.314,0,0,1,10.14-27.719c.721-1.084,1.413-2.1,2.134-2.982,5.027-6.394,13.475-10.455,13.475-10.455,17.829-5.211,20.227,21.236,19.751,22S983.883,383.826,968.406,398.531Z" transform="translate(-507.544 -175.918)"/><path class="f" d="M970.13,381.71s-11.464,27.987-16.048,29.585c-2.624.909-16.642-.815-28.148-2.46-1-.8-1.564-1.3-1.564-1.3,2.445-2.29,4.594-7.143,6.295-13.08l14.818.707s-.825-8.547,1.352-27.714,14.243-14.418,14.243-14.418C981.042,359.721,970.13,381.71,970.13,381.71Z" transform="translate(-507.544 -195.249)"/><path class="f" d="M853.839,430.765l-2.591-.24-.688-10.955,2.276.207Z" transform="translate(-449.805 -221.881)"/><path class="k" d="M943.589,350.416s-12.067-4.745-14.243,14.418-1.352,27.714-1.352,27.714l-36.153-1.729.815,12.985s39.347,6.46,43.932,4.867,16.048-29.585,16.048-29.585S963.533,357.1,943.589,350.416Z" transform="translate(-490.341 -193.865)"/><path class="f" d="M984.981,284.582c-.528-2.865,2.464-2.827,3.539-5.522l-19.94,6.224a44,44,0,0,1,3.694,5.875,16.544,16.544,0,0,0,3.171.613C980.2,292.224,981.683,287.546,984.981,284.582Z" transform="translate(-530.923 -156.405)"/><circle class="i" cx="16.472" cy="16.472" r="16.472" transform="translate(427.049 132.131) rotate(-84.72)"/><path class="f" d="M949.575,222.817c.2,1.715,2.012,2.761,3.694,3.147s3.505.405,4.98,1.305c2.356,1.451,2.992,4.674,2.7,7.444-.165,1.564-.4,3.482.881,4.391a3.415,3.415,0,0,0,1.319.471,12.372,12.372,0,0,0,4.061.141,5.775,5.775,0,0,1,2.356-.061,3.585,3.585,0,0,1,2.205,2.917c.24,1.258.108,2.568.3,3.835a7.963,7.963,0,0,0,6.276,6.474,3.454,3.454,0,0,0,2.215-.2,4.426,4.426,0,0,0,1.739-2.412l2.827-6.766a52.711,52.711,0,0,0,3.232-9.357,26.346,26.346,0,0,0-1.126-14.578,9.342,9.342,0,0,0-3.161-4.613c-3.143-2.134-7.539-.66-11.11-1.885-1.183-.41-2.247-1.107-3.425-1.527a10.55,10.55,0,0,0-7.883.716c-2.455,1.145-4.438,2.95-6.6,4.594C953.184,218.312,949.222,219.853,949.575,222.817Z" transform="translate(-520.861 -120.45)"/><path class="o" d="M950.5,222.047c.2,1.715,2.012,2.761,3.694,3.147s3.505.405,4.98,1.305c2.356,1.451,2.992,4.674,2.7,7.444-.165,1.564-.4,3.482.881,4.391a3.416,3.416,0,0,0,1.319.471,12.373,12.373,0,0,0,4.061.141,5.775,5.775,0,0,1,2.356-.061,3.585,3.585,0,0,1,2.205,2.917c.24,1.258.108,2.568.3,3.835a7.963,7.963,0,0,0,6.276,6.474,3.454,3.454,0,0,0,2.214-.2,4.426,4.426,0,0,0,1.739-2.412l2.827-6.766a52.717,52.717,0,0,0,3.232-9.357,26.347,26.347,0,0,0-1.126-14.578,9.342,9.342,0,0,0-3.162-4.613c-3.143-2.134-7.539-.66-11.11-1.885-1.183-.41-2.247-1.107-3.425-1.527a10.55,10.55,0,0,0-7.883.716c-2.455,1.145-4.438,2.95-6.6,4.594C954.11,217.542,950.147,219.083,950.5,222.047Z" transform="translate(-521.348 -120.043)"/><path class="f" d="M960.785,373.34s-6.29,24.435-12.552,26.7-3.5,2.9-3.5,2.9" transform="translate(-517.993 -206.263)"/><rect class="c" width="6.837" height="44.935" transform="translate(436.253 256.59)"/><rect class="f" width="6.837" height="3.331" transform="translate(436.253 256.59)"/><path class="c" d="M936.57,560.34v.942a2.21,2.21,0,0,0,2.21,2.21h29.768a2.21,2.21,0,0,0,2.21-2.21v-.942a2.21,2.21,0,0,0-2.21-2.21H938.78A2.21,2.21,0,0,0,936.57,560.34Z" transform="translate(-513.995 -303.986)"/><path class="f" d="M937.65,558.936h33.175a2.2,2.2,0,0,0-1.706-.806H939.351A2.2,2.2,0,0,0,937.65,558.936Z" transform="translate(-514.567 -303.986)"/><rect class="c" width="56.168" height="5.371" rx="2.686" transform="translate(411.592 299.08)"/><circle class="e" cx="3.421" cy="3.421" r="3.421" transform="translate(461.163 304.451)"/><circle class="e" cx="3.421" cy="3.421" r="3.421" transform="translate(411.342 304.451)"/><circle class="e" cx="3.421" cy="3.421" r="3.421" transform="translate(436.253 304.451)"/><rect class="c" width="53.727" height="8.302" rx="4.151" transform="translate(432.408 201.397)"/><path class="f" d="M972.437,653.5s-2.686,2.653-6.837,0" transform="translate(-529.347 -354.42)"/><path class="f" d="M1011.167,455.17v.655a3.416,3.416,0,0,1-3.416,3.416h-46.9a3.416,3.416,0,0,1-3.416-3.416v-.655Z" transform="translate(-525.032 -249.537)"/><rect class="c" width="9.24" height="117.726" transform="translate(387.505 213.265)"/><rect class="f" width="9.24" height="7.633" transform="translate(387.505 213.265)"/><rect class="c" width="6.837" height="44.935" transform="translate(109.751 259.803)"/><rect class="f" width="6.837" height="3.331" transform="translate(109.751 259.803)"/><path class="c" d="M277.8,567.191v.942a2.21,2.21,0,0,1-2.21,2.21H245.82a2.21,2.21,0,0,1-2.21-2.21v-.942A2.21,2.21,0,0,1,245.82,565h29.768a2.21,2.21,0,0,1,2.21,2.21Z" transform="translate(-147.537 -307.619)"/><path class="f" d="M277.86,565.782H244.68a2.2,2.2,0,0,1,1.706-.782h29.769A2.2,2.2,0,0,1,277.86,565.782Z" transform="translate(-148.103 -307.619)"/><rect class="c" width="56.168" height="5.371" rx="2.686" transform="translate(85.085 302.293)"/><circle class="e" cx="3.421" cy="3.421" r="3.421" transform="translate(84.84 307.664)"/><circle class="e" cx="3.421" cy="3.421" r="3.421" transform="translate(134.657 307.664)"/><circle class="e" cx="3.421" cy="3.421" r="3.421" transform="translate(109.746 307.664)"/><path class="f" d="M272.64,660.32s2.686,2.653,6.837,0" transform="translate(-162.889 -358.027)"/><path class="p" d="M631.805,319.655s-7.671-13.942-4.867-26.06A24.11,24.11,0,0,0,625.6,278.4a40.549,40.549,0,0,0-3.6-6.474" transform="translate(-347.641 -152.635)"/><path class="k" d="M618.016,252.418c.4,1.828-1.743,7.854-1.743,7.854s-4.471-4.57-4.877-6.4a3.388,3.388,0,1,1,6.6-1.456Z" transform="translate(-341.956 -140.774)"/><path class="k" d="M634.609,269.35C633.954,271.1,628.88,275,628.88,275s-1.272-6.267-.612-8.01a3.388,3.388,0,1,1,6.347,2.356Z" transform="translate(-350.855 -148.787)"/><path class="k" d="M640.748,304.689c-1.451,1.183-7.8,1.979-7.8,1.979s2.068-6.05,3.52-7.232a3.388,3.388,0,1,1,4.278,5.254Z" transform="translate(-353.432 -166.778)"/><path class="k" d="M640.7,334.192c-1.23,1.414-7.35,3.27-7.35,3.27s1.013-6.314,2.243-7.722a3.388,3.388,0,1,1,5.1,4.453Z" transform="translate(-353.644 -182.55)"/><path class="k" d="M613.312,283.481c1.593.985,7.986.942,7.986.942s-2.827-5.734-4.42-6.719a3.388,3.388,0,1,0-3.567,5.758Z" transform="translate(-342.157 -155.394)"/><path class="k" d="M612.289,317.245c1.814.471,7.906-1.47,7.906-1.47s-4.415-4.627-6.229-5.089a3.388,3.388,0,0,0-1.677,6.559Z" transform="translate(-341.228 -173.091)"/><path class="k" d="M617.078,350.58c1.706.763,8.043-.113,8.043-.113s-3.571-5.305-5.277-6.069a3.388,3.388,0,1,0-2.766,6.186Z" transform="translate(-343.978 -190.801)"/><path class="k" d="M618.016,252.418c.4,1.828-1.743,7.854-1.743,7.854s-4.471-4.57-4.877-6.4a3.388,3.388,0,1,1,6.6-1.456Z" transform="translate(-341.956 -140.774)"/><path class="k" d="M634.609,269.35C633.954,271.1,628.88,275,628.88,275s-1.272-6.267-.612-8.01a3.388,3.388,0,1,1,6.347,2.356Z" transform="translate(-350.855 -148.787)"/><path class="k" d="M640.748,304.689c-1.451,1.183-7.8,1.979-7.8,1.979s2.068-6.05,3.52-7.232a3.388,3.388,0,1,1,4.278,5.254Z" transform="translate(-353.432 -166.778)"/><path class="k" d="M640.7,334.192c-1.23,1.414-7.35,3.27-7.35,3.27s1.013-6.314,2.243-7.722a3.388,3.388,0,1,1,5.1,4.453Z" transform="translate(-353.644 -182.55)"/><path class="k" d="M613.312,283.481c1.593.985,7.986.942,7.986.942s-2.827-5.734-4.42-6.719a3.388,3.388,0,1,0-3.567,5.758Z" transform="translate(-342.157 -155.394)"/><path class="k" d="M612.289,317.245c1.814.471,7.906-1.47,7.906-1.47s-4.415-4.627-6.229-5.089a3.388,3.388,0,0,0-1.677,6.559Z" transform="translate(-341.228 -173.091)"/><path class="k" d="M617.078,350.58c1.706.763,8.043-.113,8.043-.113s-3.571-5.305-5.277-6.069a3.388,3.388,0,1,0-2.766,6.186Z" transform="translate(-343.978 -190.801)"/><path class="k" d="M627.124,405.517h0a8.076,8.076,0,0,1-8.062-8.585l2.257-35.762h11.61l2.257,35.762a8.076,8.076,0,0,1-8.062,8.585Z" transform="translate(-346.079 -199.827)"/><rect class="b" width="6.596" height="27.328" transform="translate(39.386 29.881)"/><rect class="b" width="6.596" height="27.328" transform="translate(47.867 29.881)"/><rect class="b" width="6.596" height="27.328" transform="translate(56.348 29.881)"/><rect class="b" width="6.596" height="27.328" transform="translate(64.829 29.881)"/><rect class="b" width="6.596" height="27.328" transform="translate(81.792 29.881)"/><rect class="b" width="6.596" height="27.328" transform="translate(90.273 29.881)"/><rect class="b" width="6.596" height="1.414" transform="translate(39.386 35.064)"/><rect class="b" width="6.596" height="1.414" transform="translate(39.386 52.026)"/><rect class="b" width="6.596" height="1.414" transform="translate(47.867 35.064)"/><rect class="b" width="6.596" height="1.414" transform="translate(47.867 52.026)"/><rect class="b" width="6.596" height="1.414" transform="translate(56.348 35.064)"/><rect class="b" width="6.596" height="1.414" transform="translate(56.348 52.026)"/><rect class="b" width="6.596" height="1.414" transform="translate(64.829 35.064)"/><rect class="b" width="6.596" height="1.414" transform="translate(64.829 52.026)"/><rect class="b" width="6.596" height="1.414" transform="translate(73.311 35.064)"/><rect class="b" width="6.596" height="1.414" transform="translate(73.311 52.026)"/><rect class="b" width="6.596" height="1.414" transform="translate(81.792 35.064)"/><rect class="b" width="6.596" height="1.414" transform="translate(81.792 52.026)"/><rect class="b" width="6.596" height="1.414" transform="translate(90.273 35.064)"/><rect class="b" width="6.596" height="1.414" transform="translate(90.273 52.026)"/><rect class="b" width="6.596" height="27.328" transform="translate(73.311 29.881)"/><rect class="b" width="6.596" height="27.328" transform="translate(97.086 32.526) rotate(-24.84)"/><rect class="b" width="6.596" height="1.414" transform="translate(99.265 37.234) rotate(-24.84)"/><rect class="b" width="6.596" height="1.414" transform="translate(106.387 52.625) rotate(-24.84)"/><path class="q" d="M311.868,424.461,299.9,416.823c-.061-10.757-.231-60.7,2.007-67.377A10.974,10.974,0,0,0,302,343.5a17.2,17.2,0,0,0-14.1-12.976,202.643,202.643,0,0,1-23.323-5.018c6.7-.693,11.713-1.291,11.713-1.291l.132-1.239,4.311-.207v-.184l.41-.024c10.069-.6,31.451-2.591,24.185-8.556a16.755,16.755,0,0,0-9.174-3.336c10.488-2.394,26.88-7.03,19.572-11.388-6.945-4.137-17.579-.886-23.926,1.757l-.391.165-.071-.57-2.535.509h0l-.806.16-.038-.829-35.569,5.494a121.4,121.4,0,0,0-1.451-12.161c.8-5.305,4.5-13.042,3.195-17.193-1.517-4.82-7.746-6.4-10.366-10.752-.688-1.136-1.371-2.2-2.04-3.133a32.984,32.984,0,0,0-5.018-5.423,22.9,22.9,0,0,1,1.847-8.128,39.381,39.381,0,0,1,2.488-4.994A16.774,16.774,0,0,0,253.5,224.868c2.252.966,4.99,1.065,6.4-.82l-.669-.259a2.123,2.123,0,0,0,.188-.221,12.646,12.646,0,0,1-3.9-2.068,4.57,4.57,0,0,1-.683-1.013c-.65-1.319-.575-2.9-1.2-4.241a4.9,4.9,0,0,0-1.22-1.593,8.4,8.4,0,0,0-3.986-2.28,50.4,50.4,0,0,1-5.122-1.414,17.315,17.315,0,0,0-18.427-5.183l-.589.2a7.684,7.684,0,1,0-14.989-3.393A7.666,7.666,0,0,1,211.358,198c-.122.1-.25.2-.368.311a7.689,7.689,0,0,0-.335,10.87l.137.132A7.722,7.722,0,0,0,212.72,211a7.69,7.69,0,0,1-5.07-6.3c0,.16,0,.32,0,.471a7.689,7.689,0,0,0,8.175,7.228l.212-.024-.113.155a17.3,17.3,0,0,0,1.555,21.415,8.01,8.01,0,0,0,1.234,1.979,6.4,6.4,0,0,0,.57.575,7.308,7.308,0,0,0,4.928,2.271q.471.561,1,1.079A28.043,28.043,0,0,1,224,243.729a41.151,41.151,0,0,1-3.732,7.195c-10.177,2.893-11.072,20.176-10.7,20.83.438.782-1.517,27.922,6.022,60.706-.311,9.372,5.155,24.868,24.557,20.783,24.265,1.3,32.223,5.013,32.223,5.013s-2.3,42.2.985,48.347c2.059,3.849.6,9.5-.942,13.494a14.826,14.826,0,0,0-1.357,3.129c-.471.994-.815,1.6-.815,1.6h.33c-1.244,4.321-2.125,9.536-2.125,9.536s29.415,5.97,42.353,2.064c5.023-1.517,5.23-2.921,3.6-4.08a26.2,26.2,0,0,0,3.553-.777C330.894,427.66,311.868,424.461,311.868,424.461Z" transform="translate(-128.521 -112.796)"/><path class="r" d="M254.924,235.962A16.962,16.962,0,1,1,237.962,219a16.962,16.962,0,0,1,16.962,16.962Z" transform="translate(-135.58 -124.644)"/><path class="i" d="M374.09,417.259l1.72,8.585s1.913-.344,4.745-.942c9.673-2.05,30.112-7.11,22.2-11.831-6.808-4.057-17.235-.867-23.455,1.724-2.28.942-4,1.819-4.764,2.229C374.245,417.169,374.09,417.259,374.09,417.259Z" transform="translate(-216.539 -226.251)"/><path class="f" d="M375.072,423.786l1.234,6.163s1.913-.344,4.745-.942L379.794,418.9c-2.28.942-4,1.819-4.764,2.229Z" transform="translate(-217.036 -230.357)"/><path class="j" d="M334.61,411.3l5.908-1.183-1.338-10.794-4.731.947Z" transform="translate(-176.871 -211.173)"/><path class="f" d="M334.61,411.858l2.549-.514-.466-10.964-2.243.448Z" transform="translate(-176.871 -211.733)"/><path class="k" d="M247.238,342.982s11.5-5.993,15.681,12.839,4.241,27.417,4.241,27.417l35.771-5.527.556,13s-38.447,10.568-43.173,9.466-19.073-27.728-19.073-27.728S228.094,351.742,247.238,342.982Z" transform="translate(-143.956 -189.73)"/><g class="l" transform="translate(93.824 153.288)"><path d="M374.09,417.259l1.72,8.585s1.913-.344,4.745-.942c9.673-2.05,30.112-7.11,22.2-11.831-6.808-4.057-17.235-.867-23.455,1.724-2.28.942-4,1.819-4.764,2.229C374.245,417.169,374.09,417.259,374.09,417.259Z" transform="translate(-310.363 -379.54)"/><path class="f" d="M375.072,423.786l1.234,6.163s1.913-.344,4.745-.942L379.794,418.9c-2.28.942-4,1.819-4.764,2.229Z" transform="translate(-310.86 -383.645)"/><path d="M334.61,411.3l5.908-1.183-1.338-10.794-4.731.947Z" transform="translate(-270.695 -364.461)"/><path class="f" d="M334.61,411.858l2.549-.514-.466-10.964-2.243.448Z" transform="translate(-270.695 -365.021)"/><path d="M249.238,344.982s11.5-5.993,15.681,12.839,4.241,27.417,4.241,27.417l35.771-5.527.556,13s-38.447,10.568-43.173,9.466-19.073-27.728-19.073-27.728S230.094,353.742,249.238,344.982Z" transform="translate(-238.838 -344.076)"/></g><path class="s" d="M372.922,655.124l14.107,8.952s18.654,3.124,5.965,6.954S351.47,669,351.47,669s2.191-12.976,4.523-14.7S372.922,655.124,372.922,655.124Z" transform="translate(-204.577 -354.532)"/><path class="t" d="M258.6,452.3s7.035,4.085,19.685,7.9a196.36,196.36,0,0,0,23.191,5.018,16.873,16.873,0,0,1,13.829,12.722,10.762,10.762,0,0,1-.09,5.824c-2.46,7.36-1.96,68.07-1.96,68.07l-22.07,1.06s3.491-11.03-.81-16.854,2.9-48.4,2.9-48.4-7.817-3.647-31.611-4.914c-22.3,4.712-30.315-19.86-26.612-26.475S258.6,452.3,258.6,452.3Z" transform="translate(-142.555 -247.741)"/><g class="l" transform="translate(91.633 204.032)"><path d="M372.922,655.124l14.107,8.952s18.654,3.124,5.965,6.954S351.47,669,351.47,669s2.191-12.976,4.523-14.7S372.922,655.124,372.922,655.124Z" transform="translate(-296.21 -558.563)"/><path d="M258.6,452.3s7.035,4.085,19.685,7.9a196.36,196.36,0,0,0,23.191,5.018,16.873,16.873,0,0,1,13.829,12.722,10.762,10.762,0,0,1-.09,5.824c-2.46,7.36-1.96,68.07-1.96,68.07l-22.07,1.06s3.491-11.03-.81-16.854,2.9-48.4,2.9-48.4-7.817-3.647-31.611-4.914c-22.3,4.712-30.315-19.86-26.612-26.475S258.6,452.3,258.6,452.3Z" transform="translate(-234.188 -451.772)"/></g><path class="s" d="M358,665.234l14.107,8.952s18.654,3.124,5.965,6.954-41.524-2.026-41.524-2.026,2.191-12.976,4.523-14.7S358,665.234,358,665.234Z" transform="translate(-196.687 -359.878)"/><path class="t" d="M250.616,493.365c23.794,1.267,31.611,4.914,31.611,4.914s-2.257,41.378.942,47.4c3.416,6.389-3.053,17.857-3.053,17.857l22.07-1.06v-2c-.066-10.545-.226-59.509,1.965-66.072a10.762,10.762,0,0,0,.09-5.824,16.877,16.877,0,0,0-13.829-12.722,195.158,195.158,0,0,1-23.191-5.013l-.363-.113c-12.425-3.769-19.318-7.788-19.318-7.788s-14.7-1.018-18.376,5.6c-.471.858-2.5,2.544-2.587,3.906C226.025,481.563,231.213,497.451,250.616,493.365Z" transform="translate(-138.509 -253.62)"/><path class="i" d="M351.81,441.939l.419,8.745s1.941-.052,4.834-.226c9.871-.589,30.838-2.54,23.714-8.387-6.125-5.027-16.915-3.425-23.45-1.79-2.4.6-4.241,1.206-5.042,1.494C351.975,441.877,351.81,441.939,351.81,441.939Z" transform="translate(-204.757 -240.815)"/><path class="i" d="M233,295.027s2.827,2.436,6.333,5.131c3.911,1.065,8.481,2.012,11.746,2.639-1.013-3.84-.113-8.01,1.381-11.68a44.143,44.143,0,0,1,6.389-10.606l-19.648-7.1c1.39,4.029.471,8.528-1.022,12.378A40.922,40.922,0,0,1,233,295.027Z" transform="translate(-141.926 -153.417)"/><path class="f" d="M352.06,446.2l.3,6.281s1.941-.052,4.834-.226l.264-10.182c-2.4.6-4.241,1.206-5.042,1.494Z" transform="translate(-204.889 -242.61)"/><path class="j" d="M309.62,433.522l6.017-.287.283-10.875-4.815.231Z" transform="translate(-163.74 -223.357)"/><path class="k" d="M220.3,396.142c12.722,13.226,36.445-2.492,42.825-7.148,1.037-.759,1.616-1.225,1.616-1.225-2.356-2.4-6.125-4.617-7.572-10.625a130.514,130.514,0,0,1-2.8-18.621c-.391-4.971,4.745-14.437,3.26-19.158s-7.6-6.271-10.163-10.545c-.674-1.112-1.343-2.158-2-3.072-4.74-6.6-13-11.039-13-11.039-17.6-6.007-18.979,19.125-18.541,19.907S212.355,363.1,220.3,396.142Z" transform="translate(-131.807 -174.768)"/><path class="f" d="M224.516,379.613s10.22,28.468,14.729,30.263c2.582,1.027,16.665-.08,28.228-1.216,1.037-.759,1.616-1.225,1.616-1.225-2.356-2.4-4.274-7.341-5.715-13.344l-14.837.052s1.2-8.481-.127-27.747-13.593-15.03-13.593-15.03C214.588,357.167,224.516,379.613,224.516,379.613Z" transform="translate(-136.151 -194.434)"/><path class="f" d="M309.62,433.659l2.6-.122,1.173-10.917-2.285.108Z" transform="translate(-163.74 -223.494)"/><path class="k" d="M235.556,348.773s12.25-4.208,13.593,15.03.141,27.747.141,27.747l36.2-.132-1.39,12.938s-39.578,4.712-44.1,2.926-14.733-30.259-14.733-30.259S215.324,354.573,235.556,348.773Z" transform="translate(-136.544 -193.065)"/><path class="f" d="M247.1,282.654c.655-2.827-2.356-2.917-3.3-5.654l19.657,7.068a44.006,44.006,0,0,0-3.948,5.706,16.543,16.543,0,0,1-3.195.471C251.537,290.48,250.26,285.754,247.1,282.654Z" transform="translate(-147.638 -155.316)"/><circle class="i" cx="16.472" cy="16.472" r="16.472" transform="translate(91.764 101.162) rotate(-2.75)"/><path class="f" d="M253,375.14s5.211,24.685,11.365,27.205,3.364,3.058,3.364,3.058" transform="translate(-152.503 -207.215)"/><path class="f" d="M288,398.955s-4.354,1.362-9.423-5.145" transform="translate(-166.03 -217.089)"/><circle class="r" cx="7.539" cy="7.539" r="7.539" transform="translate(81.65 86.346)"/><path class="r" d="M214.691,214.874a7.539,7.539,0,0,1,0-10.314c-.122.1-.245.2-.358.306a7.54,7.54,0,0,0,10.328,10.988c.118-.108.221-.226.325-.339A7.539,7.539,0,0,1,214.691,214.874Z" transform="translate(-130.798 -117.007)"/><path class="r" d="M217.994,224.029a7.539,7.539,0,0,1-7.934-6.6v.471a7.539,7.539,0,1,0,15.049-.942,4,4,0,0,0-.052-.471A7.539,7.539,0,0,1,217.994,224.029Z" transform="translate(-129.795 -123.316)"/><path class="f" d="M254.4,227.237a33.765,33.765,0,0,0,5.654,1.654c1.885.547,3.807,1.545,4.636,3.326.608,1.31.537,2.86,1.173,4.156.914,1.885,3.025,2.752,4.966,3.491-1.668,2.238-5.249,1.63-7.586.108s-4.349-3.769-7.068-4.358a6.634,6.634,0,0,0-6.978,3.105A16.758,16.758,0,0,0,247.825,243c-.942,3.826-2.827,7.633-6.125,9.805s-8.212,2.158-10.8-.815c-1.508-1.734-2.012-4.094-2.46-6.347a12.9,12.9,0,0,1-.363-3.209c.151-2.7,1.951-5.009,3.769-7.016,2.144-2.356,4.424-4.617,6.7-6.865,1.969-1.941,4.241-5.23,7.209-5.461C249.182,222.817,251.6,225.866,254.4,227.237Z" transform="translate(-139.323 -126.798)"/><path class="r" d="M253.4,226.237a33.765,33.765,0,0,0,5.654,1.654c1.885.547,3.807,1.545,4.636,3.326.608,1.31.537,2.86,1.173,4.156.914,1.885,3.025,2.752,4.966,3.491-1.668,2.238-5.249,1.63-7.586.108s-4.349-3.769-7.068-4.358a6.634,6.634,0,0,0-6.978,3.105A16.758,16.758,0,0,0,246.826,242c-.942,3.826-2.827,7.633-6.125,9.805s-8.212,2.158-10.8-.815c-1.508-1.734-2.012-4.094-2.46-6.347a12.9,12.9,0,0,1-.363-3.209c.151-2.7,1.951-5.009,3.769-7.016,2.144-2.356,4.424-4.617,6.7-6.865,1.969-1.941,4.241-5.23,7.209-5.461C248.182,221.817,250.6,224.866,253.4,226.237Z" transform="translate(-138.794 -126.269)"/><rect class="c" width="53.727" height="8.302" rx="4.151" transform="translate(66.705 204.61)"/><path class="f" d="M181.28,462v.655a3.416,3.416,0,0,0,3.416,3.416h46.9a3.416,3.416,0,0,0,3.416-3.416V462Z" transform="translate(-114.575 -253.149)"/><rect class="c" width="9.24" height="117.712" transform="translate(161.32 213.265)"/><rect class="f" width="9.24" height="7.633" transform="translate(161.32 213.265)"/><rect class="c" width="244.264" height="15.266" transform="translate(156.901 204.827)"/></g></g></svg>